<svg width="48" height="48" fill="none" xmlns="http://www.w3.org/2000/svg"><path d="M39 48H9a9 9 0 01-9-9V9a9 9 0 019-9h30a9 9 0 019 9v30a9 9 0 01-9 9z" fill="#FBF6EA"/><g clip-path="url(#clip0_1723_672)"><path d="M17.85 18.211l-1.992.154a1.778 1.778 0 00-1.355.798l-2.298 3.475c-.233.352-.27.792-.099 1.178.17.385.521.654.938.719l1.824.282c.427-2.265 1.449-4.524 2.982-6.606zm4.334 13.921l.282 1.824A1.226 1.226 0 0023.684 35c.238 0 .473-.07.679-.205l3.475-2.298c.464-.307.755-.8.797-1.355l.154-1.993c-2.081 1.534-4.34 2.556-6.605 2.983zm-.687-1.266c.063 0 .127-.005.19-.015a13.196 13.196 0 002.736-.776l-7.499-7.499c-.35.873-.617 1.787-.775 2.736-.063.374.063.755.33 1.023l4.185 4.185c.223.222.523.346.833.346z" fill="#FFD050"/><path d="M33.166 22.197c1.835-3.547 1.903-7.296 1.807-9.054a1.18 1.18 0 00-1.115-1.116A18.574 18.574 0 0032.85 12c-1.966 0-5.077.298-8.047 1.834-2.36 1.22-5.456 3.909-7.282 7.442a.693.693 0 01.063.054l8.086 8.086c.02.02.037.041.054.063 3.533-1.826 6.221-4.921 7.442-7.282zm-7.793-5.335a3.373 3.373 0 014.765 0 3.35 3.35 0 01.986 2.383c0 .9-.35 1.746-.986 2.382a3.36 3.36 0 01-2.383.985 3.359 3.359 0 01-2.382-.985 3.347 3.347 0 01-.987-2.382c0-.9.35-1.746.987-2.383z" fill="#232536"/><path d="M26.326 20.674a2.024 2.024 0 003.451-1.43c0-.54-.21-1.047-.592-1.429a2.015 2.015 0 00-1.43-.59c-.517 0-1.034.196-1.428.59a2.01 2.01 0 00-.593 1.43c0 .54.21 1.047.592 1.429z" fill="#232536"/><path d="M12.688 30.954a.672.672 0 00.476-.198l2.2-2.2a.674.674 0 10-.953-.952l-2.2 2.2a.674.674 0 00.476 1.15zm4.692-1.334a.674.674 0 00-.953 0l-4.23 4.23a.674.674 0 10.953.953l4.23-4.23a.674.674 0 000-.953zm1.062 2.016l-2.2 2.2a.674.674 0 10.953.953l2.2-2.2a.674.674 0 10-.953-.953z" fill="#FFD050"/></g><defs><clipPath id="clip0_1723_672"><path fill="#fff" transform="translate(12 12)" d="M0 0h23v23H0z"/></clipPath></defs></svg>